<?xml version="1.0" encoding="UTF-8" standalone="no"?>
<!DOCTYPE svg PUBLIC "-//W3C//DTD SVG 1.1//EN" "http://www.w3.org/Graphics/SVG/1.1/DTD/svg11.dtd">
<svg width="100%" height="100%" viewBox="0 0 615 59" version="1.1" xmlns="http://www.w3.org/2000/svg" xmlns:xlink="http://www.w3.org/1999/xlink" xml:space="preserve" xmlns:serif="http://www.serif.com/" style="fill-rule:evenodd;clip-rule:evenodd;stroke-linejoin:round;stroke-miterlimit:2;">
    <g>
        <path d="M591.316,0L555.568,0L521.504,59L557.253,59L591.316,0ZM579.504,59L615,59L615,0L613.568,0L579.504,59ZM496.413,0L533.316,0L499.253,59L462.35,59L496.413,0ZM474.162,0L441.33,0L407.267,59L440.098,59L474.162,0ZM375.568,0L419.079,0L385.015,59L341.504,59L375.568,0ZM353.316,0L308.33,0L274.267,59L319.253,59L353.316,0ZM248.372,0L286.079,0L252.015,59L214.308,59L248.372,0ZM226.12,0L186.33,0L152.267,59L192.057,59L226.12,0ZM117.134,0L164.079,0L130.015,59L83.071,59L117.134,0ZM94.883,0L59.134,0L25.071,59L61.543,59L61,58.687L94.883,0ZM0,0L36.883,0L3,58.687L3.543,59L0,59L0,0Z" style="fill:rgb(100,108,255);"/>
    </g>
</svg>
