<svg width="615" height="59" viewBox="0 0 615 59" fill="none" xmlns="http://www.w3.org/2000/svg">
<g clip-path="url(#clip0_11_113)">
<path fill-rule="evenodd" clip-rule="evenodd" d="M591.316 0H555.568L521.504 59H557.253L591.316 0ZM579.504 59H615V0H613.568L579.504 59ZM496.413 0H533.316L499.253 59H462.35L496.413 0ZM474.162 0H441.33L407.267 59H440.098L474.162 0ZM375.568 0H419.079L385.015 59H341.504L375.568 0ZM353.316 0H308.33L274.267 59H319.253L353.316 0ZM248.372 0H286.079L252.015 59H214.308L248.372 0ZM226.12 0H186.33L152.267 59H192.057L226.12 0ZM117.134 0H164.079L130.015 59H83.0706L117.134 0ZM94.8826 0H59.1342L25.0706 59H61.543L61 58.6865L94.8826 0ZM0 0H36.8826L2.99997 58.6865L3.54297 59H0V0Z" fill="black"/>
</g>
<defs>
<clipPath id="clip0_11_113">
<rect width="615" height="59" fill="white"/>
</clipPath>
</defs>
</svg>
